<svg width="108" height="108" viewBox="0 0 108 108" fill="none" xmlns="http://www.w3.org/2000/svg">
<path d="M107.009 22.44C105.809 23.22 104.099 23.94 103.379 24.75C103.109 25.02 102.959 25.32 103.019 25.62V28.71L102.119 31.74L101.219 34.74L100.229 38.04L98.1892 44.79L96.2092 51.45L94.7092 56.46C94.7092 57.24 94.6792 58.02 94.6192 58.77C94.4092 61.65 93.8092 64.41 92.8492 66.99C92.2792 68.58 91.5892 70.11 90.7492 71.55C90.4492 72.12 90.0892 72.69 89.7292 73.23C88.5292 75.12 87.0892 76.86 85.4992 78.39C84.2692 79.62 82.9192 80.76 81.4492 81.72C81.4492 81.72 81.4492 81.72 81.4192 81.72C81.1792 81.93 80.9092 82.11 80.6092 82.26C79.6792 82.89 78.6892 83.43 77.6692 83.91C76.9792 84.27 76.2892 84.57 75.5692 84.84C75.4192 84.93 75.2392 84.99 75.0892 85.05C73.3792 85.86 71.3992 86.4 69.4192 86.67C69.2992 86.7 69.2092 86.7 69.0892 86.73C67.8892 86.94 66.7192 87.12 65.5192 87.21C64.9792 87.27 64.4092 87.3 63.8692 87.3L61.7392 87.18L51.4792 86.64C51.4792 86.61 51.4492 86.64 51.4492 86.64L46.2892 86.37C45.8992 86.37 45.4792 86.37 45.0892 86.34C43.4692 86.28 41.9092 86.1 40.3492 85.77C40.3192 85.77 40.3192 85.77 40.3192 85.77C37.4692 85.23 34.7392 84.27 32.1892 82.98C30.7792 82.26 29.3992 81.45 28.1092 80.52C27.5692 80.13 27.0592 79.71 26.5492 79.26C25.1092 78.06 23.8192 76.77 22.6192 75.45C22.4392 75.27 22.2892 75.09 22.1392 74.91C21.9592 74.73 21.7792 74.52 21.6292 74.34C20.4892 72.9 19.5292 71.43 18.7492 69.87C18.0292 68.49 17.4592 67.02 17.0092 65.4C16.8292 64.83 16.6792 64.29 16.5592 63.69C16.5292 63.66 16.4992 63.6 16.4992 63.54C16.1992 62.31 15.9292 61.02 15.7792 59.73C15.5992 58.74 15.5092 57.75 15.5092 56.73C15.4492 56.34 15.4492 55.92 15.4492 55.53L21.1792 46.68L26.7892 38.04L29.3392 34.11L31.6492 30.57L32.4292 29.34V26.25C32.4892 25.56 32.5192 24.84 32.4892 24.18C32.4592 22.08 32.0392 20.04 31.3492 18.09C30.6892 16.02 29.7592 14.07 28.7992 12.27C27.6592 10.2 26.4592 8.34 25.4692 6.66C23.9992 4.2 22.9792 2.19 23.2492 0.780001C25.4092 0.270001 27.6892 0 29.9992 0H77.9992C90.5392 0 101.339 7.8 105.809 18.78C106.289 19.95 106.709 21.18 107.009 22.44Z" fill="#304FFE"/>
<path d="M107.999 30V30.81L103.859 33.21L101.219 34.74L98.3094 36.42L92.4894 39.81L86.7894 43.11L80.9694 46.47L78.6594 47.82C78.6594 49.26 78.2994 50.58 77.6394 51.78C76.7094 53.52 75.1494 54.96 73.1694 56.19C71.1594 57.42 68.6994 58.41 65.9394 59.13C65.9394 59.13 65.9394 59.1 65.9094 59.13C55.2294 61.89 40.6494 60.63 33.5694 55.35C31.5894 53.88 30.2094 52.08 29.6094 50.01C29.4294 49.32 29.3394 48.57 29.3394 47.82V26.25C29.3694 25.8 29.0694 25.35 28.5294 24.9C26.9094 23.61 23.0994 22.38 18.8394 21.15C15.5094 20.22 11.9394 19.29 8.93937 18.39C6.56937 17.67 4.55938 16.95 3.35938 16.26C3.89938 15.21 4.52938 14.16 5.18938 13.17C9.38938 7.02 15.8094 2.49 23.2494 0.780001C25.4094 0.270001 27.6894 0 29.9994 0H62.3994C78.5094 2.82 93.3594 9.39 105.809 18.78C106.289 19.95 106.709 21.18 107.009 22.44C107.549 24.42 107.879 26.46 107.969 28.59C107.999 29.04 107.999 29.52 107.999 30Z" fill="#4928F4"/>
<path d="M108.002 29.9997V43.2297L107.342 45.2697L105.092 52.2597L102.752 59.4597L101.522 63.2997L100.382 66.8697L99.2717 70.2597L98.1917 73.6197L97.6217 75.3897L96.8717 77.7297C96.8717 80.0097 96.8117 82.0197 96.6617 83.7297C96.6317 83.9097 96.6017 84.0897 96.6017 84.2697C96.4217 85.8597 96.1817 87.2097 95.7917 88.3497C95.7617 88.5297 95.7017 88.7097 95.6417 88.8597C94.8617 91.0197 93.6917 92.3997 91.9517 93.2997C91.5317 93.5397 91.0517 93.7197 90.5417 93.8997C88.9517 94.4397 86.9417 94.7097 84.4817 94.8597C82.6817 94.9797 80.6117 95.0097 78.2717 95.0097H76.2017L72.6317 94.8597L72.0017 94.8297L65.4917 94.5597L58.8917 94.2897L37.1417 93.3897L31.5017 93.1497H30.7217C28.3817 93.1197 26.3717 92.9697 24.6317 92.7297C22.1117 92.3397 20.1617 91.6797 18.6917 90.6897C16.5917 89.3397 15.3617 87.3597 14.6417 84.5997C14.4617 83.9397 14.3117 83.2497 14.2217 82.4997C13.9217 80.7597 13.7717 78.7497 13.6817 76.4997C13.6817 76.0497 13.6817 75.5997 13.6517 75.1197C13.6217 75.0897 13.6517 75.0897 13.6517 75.0897V73.3497C13.6217 72.4797 13.6217 71.5797 13.6217 70.6497L13.7717 65.8197L13.8617 62.3697L13.9817 58.3497V57.7797L14.1917 50.3997L14.4017 43.0197L14.6117 36.0897L14.7917 29.2797L14.8517 27.4797C14.8517 26.5497 11.7017 26.0097 8.19172 25.5597C5.40172 25.1997 2.34172 24.8697 0.511719 24.4497C0.661719 23.7597 0.811718 23.0697 0.991718 22.4097C1.53172 20.2497 2.34172 18.2097 3.36172 16.2597C3.90172 15.2097 4.53172 14.1597 5.19172 13.1697C11.6717 10.3197 18.4217 8.09969 25.4717 6.65969C31.6517 5.36969 38.1017 4.67969 44.7617 4.67969C66.8417 4.67969 87.2417 12.1497 103.382 24.7497C104.942 25.9497 106.472 27.2397 107.972 28.5897C108.002 29.0397 108.002 29.5197 108.002 29.9997Z" fill="#6200EA"/>
<path d="M108 37.1081V50.7281L106.35 53.9081L103.2 60.0581L101.52 63.2981L99.99 66.2681L99.33 67.5581C99.33 68.4881 99.33 69.3881 99.27 70.2581C99.27 71.5481 99.21 72.7781 99.12 73.9181C99 75.2681 98.82 76.4981 98.64 77.6381C98.19 80.0081 97.56 82.0481 96.66 83.7281C96.54 83.9381 96.42 84.1481 96.3 84.3281C95.97 84.8681 95.58 85.3781 95.16 85.8581C94.62 86.5181 94.02 87.0881 93.33 87.5681C92.31 88.3481 91.11 88.9781 89.73 89.4581C88.02 90.0881 86.04 90.5081 83.7 90.7481C82.17 90.8981 80.49 90.9881 78.66 90.9881L77.4 91.0481L71.16 91.4081H71.13L64.5 91.7981L57.75 92.1881L48.45 92.7281L37.14 93.3881L35.49 93.4781C33.96 93.4781 32.52 93.3881 31.14 93.2081C30.99 93.1781 30.87 93.1481 30.72 93.1481C28.68 92.8181 26.82 92.2781 25.14 91.5281C23.1 90.6281 21.33 89.4281 19.83 87.9881C18.51 86.6981 17.37 85.2281 16.44 83.5781C16.23 83.1881 16.02 82.8281 15.84 82.4081C14.94 80.6381 14.22 78.6581 13.68 76.4981C13.59 76.1381 13.5 75.7481 13.44 75.3581C13.26 74.6681 13.11 73.9481 13.02 73.1981C12.69 71.2781 12.51 69.2381 12.42 67.1081V67.0781C12.39 66.2081 12.36 65.3681 12.36 64.4681L10.89 60.9581L10.68 60.4181L10.5 59.9681L8.25 54.5981L7.89 53.7281L5.73 48.5381L3.33 42.7481C3.33 42.7481 3.33 42.7481 3.3 42.7481L0.87 36.8981L0 34.7681V29.9981C0 28.1081 0.18 26.2481 0.51 24.4481C0.66 23.7581 0.81 23.0681 0.99 22.4081C3.54 20.9381 6.21 19.5881 8.94 18.3881C15.18 15.5981 21.87 13.5281 28.8 12.2681C33.96 11.3381 39.33 10.8281 44.76 10.8281C66.69 10.8281 86.58 18.7781 102.12 31.7381C102.72 32.2181 103.29 32.6981 103.86 33.2081C105.27 34.4381 106.65 35.7281 108 37.1081Z" fill="#673AB7"/>
<path d="M108 46.0478V61.4678L106.29 65.0378L103.05 71.7878L103.02 71.8778C103.02 73.1678 102.96 74.3378 102.87 75.3878C102.57 78.8378 101.73 81.0278 100.35 82.3778C99.36 83.3978 98.13 83.9678 96.6 84.2678C96.51 84.2978 96.39 84.2978 96.3 84.3278C95.82 84.4178 95.31 84.4778 94.77 84.4778C92.91 84.6578 90.72 84.5378 88.2 84.3578C87.93 84.3578 87.63 84.3278 87.33 84.2978C85.5 84.1778 83.55 84.0578 81.39 83.9678C80.22 83.9378 78.99 83.9078 77.73 83.9078H77.67L74.64 84.1478H74.61L67.8 84.6278L60.03 85.2278L58.89 85.3178L49.8 85.9778L45.09 86.3378L40.44 86.6678C39.63 86.6678 38.85 86.6678 38.07 86.6378C38.07 86.6378 38.04 86.6078 38.04 86.6378C34.65 86.5778 31.62 86.3678 28.92 85.8578C26.43 85.4378 24.24 84.7778 22.38 83.7878C20.46 82.8578 18.87 81.5378 17.58 79.8578C16.35 78.2078 15.45 76.1378 14.88 73.6478C14.88 73.6178 14.88 73.6178 14.88 73.6178C14.46 71.6078 14.22 69.2678 14.22 66.6278L13.77 65.8178L11.1 61.0478L10.71 60.3878L10.5 59.9678L7.71 55.0178L6.33 52.5278L4.59 49.4378L1.59 44.0678L0 41.2478V30.2078C2.64 28.4678 5.37 26.9378 8.19 25.5578C11.61 23.8178 15.15 22.3478 18.84 21.1478C22.86 19.8278 27.06 18.7778 31.35 18.0878C35.7 17.3678 40.17 17.0078 44.76 17.0078C65.16 17.0078 83.88 24.2978 98.31 36.4178C98.97 36.9278 99.6 37.4978 100.23 38.0378C102.75 40.2878 105.15 42.7178 107.34 45.2678C107.58 45.5378 107.82 45.7778 108 46.0478Z" fill="#8E24AA"/>
<path d="M108 56.1262V77.8163C107.28 77.3963 106.29 76.8862 105.06 76.3462C104.4 76.0162 103.65 75.6862 102.87 75.3862C101.73 74.8762 100.5 74.3962 99.12 73.9162C98.82 73.7962 98.52 73.7062 98.19 73.6162C97.65 73.4062 97.08 73.2263 96.51 73.0463C94.74 72.5063 92.79 71.9963 90.75 71.5463C89.97 71.3963 89.16 71.2462 88.35 71.1262C85.74 70.6762 82.95 70.4062 80.04 70.3762C79.8 70.3462 79.53 70.3463 79.29 70.3463L71.58 70.4062L61.08 70.4662H61.05L38.58 70.6462C31.44 70.6462 27.06 72.3563 24.42 73.0463C24.42 73.0463 24.39 73.0462 24.39 73.0762C21.6 73.7962 20.73 73.3462 20.49 68.4562C20.43 67.1062 20.4 65.3662 20.4 63.2362L18.72 61.9462L15.78 59.7262L13.98 58.3463L13.62 58.0763L8.64 54.2963L7.89 53.7262L6.33 52.5262L3.45 50.3663L0 47.7262V37.5262C0.3 37.2862 0.57 37.0762 0.87 36.8962C5.22 33.8962 9.87 31.3462 14.79 29.2762C19.17 27.4162 23.79 25.9462 28.53 24.8962C29.82 24.6262 31.14 24.3563 32.49 24.1763C36.48 23.4863 40.59 23.1562 44.76 23.1562C62.79 23.1562 79.35 29.4263 92.49 39.8063C94.47 41.3663 96.39 43.0163 98.19 44.7863C100.65 47.1263 102.96 49.6162 105.09 52.2562C105.51 52.7962 105.93 53.3362 106.35 53.9062C106.92 54.6262 107.46 55.3762 108 56.1262Z" fill="#C2185B"/>
<path d="M108 68.1637V78.0038C108 79.9538 107.82 81.8738 107.46 83.7338C106.92 86.4938 105.99 89.1338 104.73 91.5938C104.07 91.7438 103.32 91.7438 102.48 91.6238C100.59 91.2938 98.37 90.3037 95.97 89.0137C95.85 88.9837 95.73 88.9238 95.64 88.8638C94.89 88.4738 94.11 88.0537 93.33 87.5737C91.74 86.7037 90.06 85.7438 88.38 84.8438C88.02 84.6638 87.66 84.4837 87.33 84.3037C85.41 83.3137 83.43 82.4138 81.45 81.7238C81.45 81.7238 81.45 81.7238 81.42 81.7238C81 81.5738 80.55 81.4237 80.1 81.3037C78.39 80.8237 76.65 80.5238 74.97 80.5238L71.67 79.5638L57.06 75.3338C57.06 75.3338 57.06 75.3338 57.03 75.3338L48.06 72.7238H48.03L44.13 71.5838C32.85 71.5838 25.92 76.3838 22.56 74.5538C21.24 73.8638 20.46 72.1237 20.19 68.7037C20.1 67.7437 20.07 66.6637 20.07 65.4037L16.56 63.6937L16.41 63.6337H16.38L13.86 62.3738L11.1 61.0538L10.89 60.9637L10.38 60.6937L4.5 57.8438L0 55.6537V45.3638C0.51 44.9138 1.05 44.4938 1.59 44.0738C2.16 43.6238 2.73 43.2038 3.3 42.7538C3.33 42.7538 3.33 42.7538 3.33 42.7538C6.87 40.2038 10.62 37.9538 14.61 36.0938C19.26 33.8738 24.21 32.1638 29.34 31.0538C30.09 30.8738 30.87 30.6938 31.65 30.5738C35.91 29.7638 40.29 29.3438 44.76 29.3438C60.57 29.3438 75.09 34.4738 86.79 43.1138C90.18 45.6338 93.33 48.4237 96.21 51.4537C98.58 53.9437 100.77 56.6437 102.75 59.4637C102.9 59.6737 103.05 59.8838 103.2 60.0638C104.31 61.6838 105.33 63.3338 106.29 65.0438C106.92 66.0638 107.46 67.1137 108 68.1637Z" fill="#D81B60"/>
<path d="M107.46 83.7322C106.92 86.4922 105.99 89.1322 104.73 91.5922C104.16 92.7022 103.53 93.7522 102.84 94.7722C102.42 95.4022 101.97 96.0022 101.52 96.5722C100.44 96.1522 98.85 95.5522 96.9 94.8922C96.9 94.8922 96.9 94.8922 96.9 94.8622C95.43 94.3522 93.75 93.8122 91.95 93.3022C91.44 93.1522 90.93 93.0022 90.39 92.8522C88.26 92.2822 86.04 91.7722 83.88 91.4722C82.08 91.1722 80.31 90.9922 78.66 90.9922L77.28 90.6022H77.25L69.99 88.5022L65.52 87.2122L60.54 85.7722H60.51L58.89 85.3222L39.3 79.6822L33.66 78.0622L29.46 77.0722L22.62 75.4522L21.78 75.2422C21.78 75.2422 21.78 75.2422 21.75 75.2422L14.88 73.6522C14.88 73.6222 14.88 73.6222 14.88 73.6222L13.65 73.3522L13.02 73.2022L8.01 72.0322L7.44 71.8822L3.18 68.3722L0 65.7022V53.4622C1.11 52.3822 2.25 51.3622 3.45 50.3722C3.81 50.0422 4.2 49.7422 4.59 49.4422C4.95 49.1422 5.34 48.8422 5.73 48.5422C8.46 46.4722 11.34 44.6122 14.4 43.0222C18.3 40.9222 22.44 39.2422 26.79 38.0422C27.63 37.7722 28.47 37.5322 29.34 37.3522C34.26 36.1222 39.42 35.4922 44.76 35.4922C58.17 35.4922 70.65 39.5422 80.97 46.4722C86.1 49.9222 90.72 54.0622 94.62 58.7722C96.6 61.1422 98.4 63.6322 99.99 66.2722C100.14 66.4822 100.26 66.6622 100.38 66.8722C101.34 68.4622 102.24 70.1122 103.05 71.7922C103.8 73.2922 104.46 74.7922 105.06 76.3522C106.02 78.7522 106.8 81.2122 107.46 83.7322Z" fill="#F50057"/>
<path d="M102.84 94.7719C102.42 95.4019 101.97 96.0019 101.52 96.5719C100.2 98.2219 98.76 99.7219 97.14 101.042C95.73 102.212 94.23 103.262 92.64 104.162C92.04 104.012 91.44 103.832 90.81 103.592C88.83 102.902 86.76 101.762 84.84 100.562C81.96 98.7319 79.47 96.7519 78.36 95.8519C77.94 95.4919 77.73 95.3119 77.73 95.3119L72.63 94.8619L72 94.8019L65.4 94.2319L58.56 93.6319L48.45 92.7319L32.43 91.3219L32.37 91.2919L26.73 88.5619L21.03 85.8019L16.44 83.5819L15.45 83.1019L14.22 82.5019L9.96 80.4319L4.29 77.7019L2.52 76.8319L0 76.0519V62.6419C1.41 60.9619 2.91 59.3719 4.5 57.8419C5.52 56.8819 6.6 55.9219 7.71 55.0219C7.89 54.8719 8.07 54.7219 8.25 54.6019C8.37 54.4519 8.52 54.3619 8.64 54.3019C10.41 52.8619 12.27 51.5719 14.19 50.4019C16.41 48.9919 18.75 47.7319 21.18 46.6819C23.79 45.5119 26.52 44.5219 29.34 43.7719C34.23 42.3919 39.42 41.6719 44.76 41.6719C57 41.6719 68.31 45.3919 77.64 51.7819C83.61 55.8619 88.77 61.0219 92.85 66.9919C94.2 68.9119 95.4 70.9519 96.51 73.0519C96.9 73.8319 97.29 74.6119 97.62 75.3919C97.98 76.1419 98.31 76.8919 98.64 77.6419C99.27 79.2019 99.84 80.7619 100.35 82.3819C101.31 85.3819 102.03 88.4419 102.48 91.6219C102.63 92.6719 102.75 93.7219 102.84 94.7719Z" fill="#FF1744"/>
<path d="M97.17 100.26C97.17 100.5 97.17 100.77 97.14 101.04C95.73 102.21 94.23 103.26 92.64 104.16C91.98 104.52 91.32 104.88 90.63 105.18C89.94 105.51 89.25 105.81 88.53 106.08C87.51 105.54 86.13 104.88 84.66 104.25C82.59 103.32 80.34 102.48 78.6 102.21C78.18 102.12 77.79 102.09 77.43 102.09L72.51 101.46H72.45L66.33 100.65L60.15 99.8403L57.27 99.4803L34.59 96.5403C33.12 96.5403 31.56 96.4503 29.94 96.2403C27.96 96.0603 25.89 95.7603 23.82 95.3403C21.78 94.9803 19.71 94.5003 17.73 93.9903C15.66 93.5103 13.62 92.9403 11.73 92.4003C9.54 91.7403 7.5 91.1103 5.79 90.5403C4.38 90.0903 3.18 89.6703 2.25 89.3403C1.71 88.0503 1.26 86.7003 0.93 85.3203C0.3 82.9803 0 80.5203 0 78.0003V72.9903C0.96 71.4003 2.01 69.8403 3.18 68.3703C5.31 65.5503 7.74 62.9703 10.38 60.6903C10.47 60.5703 10.59 60.4803 10.68 60.4203L10.71 60.3903C11.64 59.5503 12.6 58.8003 13.62 58.0803C13.74 57.9603 13.86 57.8703 13.98 57.7803C14.46 57.4203 14.97 57.0603 15.51 56.7303C19.8 53.8203 24.54 51.5403 29.61 50.0103C34.41 48.5703 39.48 47.8203 44.76 47.8203C55.23 47.8203 65.01 50.9103 73.17 56.1903C79.2 60.0603 84.39 65.1603 88.35 71.1303C88.83 71.8203 89.28 72.5103 89.73 73.2303C91.8 76.7403 93.51 80.5203 94.77 84.4803C94.92 84.9303 95.04 85.3803 95.16 85.8603C95.4 86.6703 95.61 87.5103 95.79 88.3503C95.85 88.5603 95.91 88.7703 95.97 89.0103C96.39 90.9003 96.69 92.8803 96.9 94.8603C96.9 94.8903 96.9 94.8903 96.9 94.8903C97.08 96.6603 97.17 98.4603 97.17 100.26Z" fill="#FF5722"/>
<path d="M90.9897 100.26C90.9897 101.31 90.9297 102.45 90.8097 103.59C90.7497 104.13 90.6897 104.67 90.6297 105.18C89.9397 105.51 89.2497 105.81 88.5297 106.08C87.1797 106.59 85.7997 107.01 84.3897 107.31C83.4297 107.52 82.4397 107.7 81.4497 107.79H81.4197C80.4897 107.22 79.4097 106.53 78.2997 105.75C76.2897 104.34 74.1897 102.75 72.5097 101.46C72.4797 101.43 72.4797 101.43 72.4497 101.4C70.6797 100.05 69.4197 99.03 69.4197 99.03L66.2397 99.15L60.1197 99.36L57.2697 99.48L45.8097 99.9L36.1197 100.26C35.4897 100.29 34.7397 100.29 33.8097 100.26H33.7797C32.5197 100.23 31.0197 100.14 29.3697 99.99C27.4497 99.84 25.3497 99.66 23.2197 99.45C21.1497 99.21 19.0497 98.97 17.0397 98.73C14.8197 98.49 12.7197 98.22 10.9197 97.98C9.50969 97.8 8.27969 97.65 7.28969 97.53C6.44969 96.57 5.69969 95.58 4.97969 94.5C3.89969 92.88 2.96969 91.17 2.24969 89.34C1.70969 88.05 1.25969 86.7 0.929688 85.32C1.79969 82.65 2.93969 80.13 4.28969 77.7C5.36969 75.72 6.62969 73.83 8.00969 72.03C9.35969 70.26 10.8297 68.61 12.4197 67.11V67.08C12.8697 66.63 13.3197 66.21 13.7697 65.82C14.6097 65.04 15.4797 64.32 16.3797 63.63H16.4097C16.4397 63.57 16.4697 63.57 16.4997 63.54C17.2197 62.97 17.9697 62.46 18.7197 61.95C23.1597 58.92 28.1697 56.67 33.5697 55.35C37.1397 54.48 40.8897 54 44.7597 54C52.3797 54 59.5797 55.83 65.9097 59.13H65.9397C71.3697 61.92 76.1697 65.76 80.0397 70.38C82.1697 72.84 83.9997 75.54 85.4997 78.39C86.5497 80.31 87.4497 82.32 88.1997 84.36C88.2597 84.54 88.3197 84.69 88.3797 84.84C88.8897 86.34 89.3397 87.9 89.7297 89.46C89.9997 90.57 90.2097 91.71 90.3897 92.85C90.4497 93.21 90.5097 93.54 90.5397 93.9C90.8397 95.97 90.9897 98.1 90.9897 100.26Z" fill="#FF6F00"/>
<path d="M84.8405 100.26V100.56C84.8405 101.58 84.7505 102.87 84.6605 104.25C84.5705 105.27 84.4805 106.32 84.3905 107.31C83.4305 107.52 82.4405 107.7 81.4505 107.79H81.4205C80.2805 107.94 79.1705 108 78.0005 108H72.7505L71.6105 107.67L65.7005 105.87L59.7005 104.07L45.8105 99.8997L39.8105 98.0997C39.8105 98.0997 37.3205 99.0897 33.8105 100.26H33.7805C32.4305 100.71 30.9605 101.19 29.4005 101.67C27.4505 102.24 25.3805 102.81 23.3405 103.26C21.2405 103.74 19.1705 104.1 17.3105 104.25C16.7405 104.31 16.1705 104.34 15.6605 104.34C13.9805 103.41 12.3605 102.3 10.8905 101.07C9.60047 99.9897 8.40047 98.8197 7.29047 97.5297C6.45047 96.5697 5.70047 95.5797 4.98047 94.4997C5.19047 93.1497 5.43047 91.8297 5.79047 90.5397C6.69047 86.9697 8.10047 83.5497 9.96047 80.4297C10.9805 78.6597 12.1205 76.9497 13.4405 75.3597C13.4705 75.2697 13.5605 75.1797 13.6505 75.1197C13.6205 75.0897 13.6505 75.0897 13.6505 75.0897C14.0405 74.5797 14.4605 74.0997 14.8805 73.6497C14.8805 73.6197 14.8805 73.6197 14.8805 73.6197C16.1105 72.2997 17.3705 71.0397 18.7505 69.8697C19.2305 69.4797 19.6805 69.0897 20.1905 68.6997C20.2805 68.6097 20.3705 68.5497 20.4905 68.4597C27.2405 63.2997 35.6705 60.1797 44.7605 60.1797C55.0805 60.1797 64.4705 64.0497 71.5805 70.4097C75.0005 73.4997 77.9105 77.1897 80.1005 81.2997C80.2805 81.5997 80.4605 81.9297 80.6105 82.2597C80.8805 82.7997 81.1505 83.3697 81.3905 83.9697C82.3805 86.1297 83.1605 88.4097 83.7005 90.7497C83.7605 90.9897 83.8205 91.2297 83.8805 91.4697C84.1205 92.5797 84.3305 93.7197 84.4805 94.8597C84.7205 96.6297 84.8405 98.4297 84.8405 100.26Z" fill="#FF9800"/>
<path d="M78.6581 100.258C78.6581 100.858 78.6281 101.518 78.5981 102.208C78.5381 103.318 78.4481 104.518 78.2981 105.748C78.2381 106.498 78.1181 107.248 77.9981 107.998H61.5581L58.3781 107.488L45.9581 105.508L44.1881 105.238L40.1381 104.578C38.3681 104.578 34.5281 105.358 30.4781 106.108C28.3481 106.498 26.1881 106.918 24.2381 107.188C23.9981 107.218 23.7581 107.248 23.5481 107.278H23.5181C21.4181 106.828 19.3781 106.138 17.4581 105.238C16.8581 104.968 16.2581 104.668 15.6581 104.338C13.9781 103.408 12.3581 102.298 10.8881 101.068C10.8581 100.708 10.8281 100.408 10.8281 100.258C10.8281 99.4781 10.8581 98.7281 10.9181 97.9781C11.0381 96.0581 11.3081 94.1981 11.7281 92.3981C12.3881 89.6681 13.3481 87.0281 14.6381 84.5981C14.8781 84.0881 15.1481 83.5781 15.4481 83.0981C15.5681 82.8581 15.7181 82.6481 15.8381 82.4081C16.3781 81.5381 16.9781 80.6981 17.5781 79.8581C18.8381 78.2081 20.2481 76.6481 21.7481 75.2381C21.7781 75.2381 21.7781 75.2381 21.7781 75.2381C21.8981 75.1181 22.0181 74.9981 22.1381 74.9081C22.2881 74.7881 22.4081 74.6381 22.5581 74.5481C23.1581 74.0081 23.7581 73.5281 24.3881 73.0781C24.3881 73.0481 24.4181 73.0481 24.4181 73.0481C30.0881 68.8181 37.1081 66.3281 44.7581 66.3281C50.6981 66.3281 56.2181 67.8281 61.0481 70.4681H61.0781C65.2181 72.7481 68.8181 75.8381 71.6681 79.5581C72.7781 80.9981 73.7681 82.5281 74.6081 84.1481H74.6381C74.7881 84.4481 74.9381 84.7481 75.0881 85.0481C75.9881 86.8181 76.7081 88.6781 77.2481 90.5981H77.2781C77.3081 90.7481 77.3681 90.8981 77.3981 91.0481C77.7581 92.3381 78.0581 93.6581 78.2681 95.0081C78.2981 95.2781 78.3281 95.5781 78.3581 95.8481C78.5681 97.2881 78.6581 98.7581 78.6581 100.258Z" fill="#FFC107"/>
<path d="M72.5117 99.9278C72.5117 100.408 72.5117 100.918 72.4517 101.398V101.428C72.4517 101.458 72.4517 101.458 72.4517 101.458C72.3917 103.618 72.0917 105.748 71.6117 107.668C71.6117 107.788 71.5817 107.878 71.5217 107.998H57.5117L45.9617 105.508L44.4317 105.178L44.1917 105.238L31.3817 107.878L30.8117 107.998H30.0017C28.0817 107.998 26.1917 107.818 24.3617 107.458C24.0917 107.398 23.8217 107.338 23.5517 107.278H23.5217C21.4217 106.828 19.3817 106.138 17.4617 105.238C17.4017 104.908 17.3417 104.578 17.3117 104.248C17.1017 102.958 17.0117 101.608 17.0117 100.258C17.0117 99.7478 17.0117 99.2378 17.0417 98.7278C17.1317 97.1078 17.3717 95.5178 17.7317 93.9878C17.9717 92.8478 18.3017 91.7378 18.6917 90.6878C19.0217 89.7578 19.4117 88.8578 19.8317 87.9878C20.1917 87.2378 20.6117 86.5178 21.0317 85.7978C21.4517 85.1078 21.9017 84.4478 22.3817 83.7878C23.5817 82.1378 24.9917 80.6078 26.5517 79.2578C27.4517 78.4778 28.4417 77.7278 29.4617 77.0678C33.8417 74.1878 39.0917 72.5078 44.7617 72.5078C45.8717 72.5078 46.9517 72.5678 48.0017 72.7178H48.0617C51.2717 73.0778 54.2717 73.9778 57.0317 75.3278C57.0617 75.3278 57.0617 75.3278 57.0617 75.3278C61.4117 77.4578 65.1017 80.6678 67.8017 84.6278C68.2517 85.2878 68.7017 86.0078 69.0917 86.7278C69.4217 87.2978 69.7217 87.8978 69.9917 88.4978C70.4117 89.4278 70.8017 90.4178 71.1317 91.4078H71.1617C71.4917 92.5178 71.7917 93.6278 72.0017 94.7978V94.8278C72.3317 96.4778 72.5117 98.1878 72.5117 99.9278Z" fill="#FFD54F"/>
<path d="M66.3302 100.561V100.651C66.3302 102.421 66.1202 104.161 65.7002 105.871C65.5502 106.591 65.3402 107.311 65.0702 108.001H51.6302L44.7602 106.111L37.8902 108.001H30.0002C28.0802 108.001 26.1902 107.821 24.3602 107.461C24.3002 107.371 24.2702 107.281 24.2402 107.191C23.8202 105.901 23.4902 104.611 23.3402 103.261C23.2202 102.391 23.1602 101.491 23.1602 100.561C23.1602 100.201 23.1602 99.8109 23.2202 99.4509C23.2502 98.0409 23.4602 96.6609 23.8202 95.3409C24.0002 94.4409 24.2702 93.5709 24.6302 92.7309C24.7502 92.3109 24.9302 91.9209 25.1402 91.5309C25.5902 90.5109 26.1302 89.5209 26.7302 88.5609C27.3902 87.6009 28.1102 86.7009 28.9202 85.8609C29.8802 84.7809 30.9602 83.7909 32.1902 82.9809C34.2902 81.4509 36.6902 80.3109 39.3002 79.6809C41.0402 79.2009 42.8702 78.9609 44.7602 78.9609C50.7602 78.9609 56.1302 81.3609 60.0302 85.2309C60.1802 85.3809 60.3602 85.5609 60.5102 85.7709H60.5402C60.9602 86.2209 61.3502 86.6709 61.7402 87.1809C62.8502 88.5909 63.7802 90.1209 64.5002 91.8009C64.8602 92.5809 65.1602 93.3909 65.4002 94.2309C65.4302 94.3509 65.4602 94.4409 65.4902 94.5609C65.9102 96.0309 66.1802 97.5609 66.2402 99.1509C66.3002 99.6009 66.3302 100.081 66.3302 100.561Z" fill="#FFE082"/>
<path d="M60.1798 100.561C60.1798 101.791 60.0298 102.961 59.6998 104.071C59.3998 105.271 58.9498 106.411 58.3798 107.491C58.2898 107.671 58.0798 108.001 58.0798 108.001H31.4398C31.4098 107.971 31.3798 107.911 31.3798 107.881C31.0198 107.311 30.7198 106.741 30.4798 106.111C29.8798 104.731 29.5198 103.231 29.3998 101.671C29.3398 101.311 29.3398 100.921 29.3398 100.561C29.3398 100.381 29.3398 100.171 29.3698 99.9906C29.3998 98.6706 29.5798 97.4106 29.9398 96.2406C30.2398 95.1606 30.6298 94.1706 31.1398 93.2106C31.1398 93.2106 31.1698 93.1806 31.1698 93.1506C31.5298 92.5206 31.9198 91.8906 32.3698 91.2906C33.8398 89.3106 35.7898 87.6906 38.0398 86.6406C38.0698 86.6406 38.0698 86.6406 38.0698 86.6406C38.7898 86.2806 39.5398 85.9806 40.3198 85.7706C40.3198 85.7706 40.3198 85.7706 40.3498 85.7706C41.7298 85.3506 43.2298 85.1406 44.7598 85.1406C46.5298 85.1406 48.2398 85.4106 49.7998 85.9806C50.3698 86.1306 50.9098 86.3706 51.4498 86.6406C51.4498 86.6406 51.4498 86.6406 51.4798 86.6406C54.0598 87.8706 56.2498 89.7906 57.7498 92.1906C58.0498 92.6406 58.3198 93.1206 58.5598 93.6306C58.6798 93.8406 58.7998 94.0806 58.8898 94.2906C59.5798 95.8506 59.9998 97.5606 60.1198 99.3606C60.1498 99.5106 60.1498 99.6606 60.1498 99.8406C60.1798 100.081 60.1798 100.321 60.1798 100.561Z" fill="#FFECB3"/>
<path d="M72 15H36C24.3 15 15 24.3 15 36V72C15 83.7 24.3 93 36 93H72C83.7 93 93 83.7 93 72V36C93 24.3 83.7 15 72 15Z" stroke="white" stroke-width="6" stroke-miterlimit="10" stroke-linecap="round" stroke-linejoin="round"/>
<path d="M75 33C76.6569 33 78 31.6569 78 30C78 28.3431 76.6569 27 75 27C73.3431 27 72 28.3431 72 30C72 31.6569 73.3431 33 75 33Z" fill="white"/>
<path d="M54 72C63.9411 72 72 63.9411 72 54C72 44.0589 63.9411 36 54 36C44.0589 36 36 44.0589 36 54C36 63.9411 44.0589 72 54 72Z" stroke="white" stroke-width="6" stroke-miterlimit="10" stroke-linecap="round" stroke-linejoin="round"/>
</svg>
