<svg width="108" height="108" viewBox="0 0 108 108" fill="none" xmlns="http://www.w3.org/2000/svg">
<path d="M108 93C108 101.286 101.286 108 93 108H15C6.717 108 0 101.286 0 93V15C0 6.714 6.717 0 15 0H93C101.286 0 108 6.714 108 15V93Z" fill="#0288D1"/>
<path d="M18 39H33V90H18V39ZM25.455 33H25.371C20.895 33 18 29.664 18 25.497C18 21.24 20.985 18 25.542 18C30.105 18 32.916 21.24 33 25.497C33 29.661 30.105 33 25.455 33ZM90 90H75V62.703C75 56.109 71.325 51.609 65.424 51.609C60.921 51.609 58.485 54.645 57.303 57.579C56.871 58.629 57 61.533 57 63V90H42V39H57V46.848C59.163 43.5 62.55 39 71.214 39C81.948 39 89.997 45.75 89.997 60.822L90 90Z" fill="white"/>
</svg>
